<svg xmlns="http://www.w3.org/2000/svg" viewBox="0 0 612 497.3"><path d="M612 58.8c-16.9 25.2-38.1 47.3-62.6 64.9 0.2 5.4 0.4 10.8 0.4 16.3 0 165.9-126.4 357.3-357.3 357.3 -70.9 0-136.9-20.7-192.6-56.4 9.9 1.2 19.8 1.8 30 1.8 58.9 0 113-20.1 156-53.8 -54.9-1.1-101.3-37.4-117.3-87.3 7.8 1.4 15.5 2.3 23.7 2.3 11.5 0 22.6-1.6 33.1-4.4C67.8 288 24.5 237.2 24.5 176.3c0-0.5 0-1.1 0-1.6 17 9.3 36.3 15.1 56.9 15.7C47.7 168 25.6 129.5 25.6 86c0-23 6.2-44.6 17-63.1 61.9 76 154.5 126 258.8 131.3 -2.2-9.2-3.2-18.8-3.2-28.6C298.2 56.2 354.4 0 423.7 0c36.1 0 68.7 15.2 91.7 39.6C544 34 570.9 23.4 595.1 9.1c-9.4 29.3-29.3 53.9-55.2 69.5C565.3 75.6 589.5 68.9 612 58.8L612 58.8z"/></svg>